<svg width="20" height="20" viewBox="0 0 20 20" xmlns="http://www.w3.org/2000/svg" fill="currentColor"><path fill-rule="evenodd" clip-rule="evenodd" d="M8.6177 3.09633C8.97872 3.2994 9.10676 3.75669 8.90369 4.11771L7.28239 7.00001H12.7176L11.0963 4.11771C10.8933 3.75669 11.0213 3.2994 11.3823 3.09633C11.7433 2.89326 12.2006 3.0213 12.4037 3.38232L14.4386 7.00001H18.25C18.4864 7.00001 18.7089 7.11144 18.8505 7.30069C18.9921 7.48994 19.0362 7.73487 18.9695 7.96164L16.4695 16.4616C16.3757 16.7808 16.0827 17 15.75 17H4.25001C3.9173 17 3.62436 16.7808 3.53048 16.4616L1.03048 7.96164C0.963788 7.73487 1.00789 7.48994 1.1495 7.30069C1.2911 7.11144 1.51364 7.00001 1.75001 7.00001H5.56137L7.59632 3.38232C7.7994 3.0213 8.25668 2.89326 8.6177 3.09633ZM5.98521 8.50001H2.75236L4.81119 15.5H15.1888L17.2477 8.50001H14.0148C14.0054 8.50019 13.996 8.50019 13.9866 8.50001H6.01343C6.00403 8.50019 5.99463 8.50019 5.98521 8.50001ZM6.75001 10C7.16422 10 7.50001 10.3358 7.50001 10.75V13.25C7.50001 13.6642 7.16422 14 6.75001 14C6.33579 14 6.00001 13.6642 6.00001 13.25V10.75C6.00001 10.3358 6.33579 10 6.75001 10ZM10 10C10.4142 10 10.75 10.3358 10.75 10.75V13.25C10.75 13.6642 10.4142 14 10 14C9.58579 14 9.25001 13.6642 9.25001 13.25V10.75C9.25001 10.3358 9.58579 10 10 10ZM13.25 10C13.6642 10 14 10.3358 14 10.75V13.25C14 13.6642 13.6642 14 13.25 14C12.8358 14 12.5 13.6642 12.5 13.25V10.75C12.5 10.3358 12.8358 10 13.25 10Z"/></svg>
